<svg xmlns="http://www.w3.org/2000/svg" xmlns:xlink="http://www.w3.org/1999/xlink" version="1.1" id="Capa_1" x="0px" y="0px" viewBox="0 0 564.1 215.4" style="enable-background:new 0 0 564.1 215.4;" xml:space="preserve"> <style type="text/css"> .st0{fill:#4B4B4D;} .st1{fill:#727376;} .st2{fill:#5DC4CE;} .st3{fill:#76B8E4;} .st4{fill:#8CC554;} .st5{fill:#81B350;} .st6{fill:url(#SVGID_1_);} .st7{fill:#FFFFFF;} .st8{fill-rule:evenodd;clip-rule:evenodd;fill:#8FCBED;} </style> <g> <g> <g> <path class="st0" d="M391.3,107.8h-6.6v7.2h7.4v1h-8.6V99.5h8.2v1h-7v6.3h6.6V107.8z"></path> <path class="st0" d="M394.4,114.2c0.9,0.6,2.2,1.1,3.6,1.1c2.5,0,4-1.4,4-3.4c0-1.8-1-2.9-3.4-3.8c-2.6-1-4.2-2.3-4.2-4.6 c0-2.4,2-4.2,4.8-4.2c1.5,0,2.7,0.4,3.3,0.8l-0.4,1c-0.4-0.3-1.5-0.8-2.9-0.8c-2.7,0-3.6,1.7-3.6,3c0,1.8,1.1,2.7,3.4,3.7 c2.7,1.1,4.2,2.4,4.2,4.8c0,2.4-1.7,4.5-5.2,4.5c-1.4,0-3.1-0.5-3.9-1.1L394.4,114.2z"></path> <path class="st0" d="M409.4,100.5H404v-1h12v1h-5.4V116h-1.2V100.5z"></path> <path class="st0" d="M419.7,110.2l-2,5.8h-1.2l6-16.5h1.1l6,16.5h-1.2l-2.1-5.8H419.7z M425.8,109.2l-2-5.5 c-0.4-1.2-0.6-2-0.9-2.9h0c-0.2,1-0.5,1.8-0.9,2.9l-2,5.6H425.8z"></path> <path class="st0" d="M432,99.7c0.9-0.2,2.1-0.4,3.3-0.4c2.1,0,3.4,0.4,4.3,1.4c0.7,0.7,1,1.5,1,2.7c0,1.7-1.2,3.1-2.8,3.7v0.1 c1.4,0.3,3.5,1.5,3.5,4.2c0,1.3-0.5,2.4-1.2,3.2c-1.1,1.1-2.9,1.6-5.2,1.6c-1.2,0-2.2-0.1-2.9-0.1V99.7z M433.2,106.7h2.4 c2.4,0,3.9-1.4,3.9-3.2c0-2.3-1.8-3.2-4.2-3.2c-1.1,0-1.7,0.1-2.1,0.2V106.7z M433.2,115c0.5,0.1,1.2,0.1,2,0.1 c2.5,0,4.9-0.9,4.9-3.7c0-2.6-2.2-3.7-4.9-3.7h-2.1V115z"></path> <path class="st0" d="M444.4,99.5h1.2V115h7.4v1h-8.5V99.5z"></path> <path class="st0" d="M463.1,107.8h-6.6v7.2h7.4v1h-8.6V99.5h8.2v1h-7v6.3h6.6V107.8z"></path> <path class="st0" d="M478,115.4c-0.8,0.4-2.4,0.8-4.5,0.8c-4,0-7.8-2.5-7.8-8.4c0-4.9,3.2-8.6,8.4-8.6c2.1,0,3.3,0.5,3.8,0.7 l-0.4,1c-0.8-0.4-2-0.7-3.4-0.7c-4.5,0-7.2,2.9-7.2,7.6c0,4.5,2.5,7.4,7,7.4c1.4,0,2.8-0.3,3.7-0.8L478,115.4z"></path> <path class="st0" d="M481.9,99.5V116h-1.2V99.5H481.9z"></path> <path class="st0" d="M499.9,108.2c-0.1-2.5-0.3-5.5-0.3-7.3h0c-0.6,1.8-1.3,3.7-2.2,6.2l-3.5,9H493l-3.3-8.8 c-0.9-2.6-1.6-4.6-2.1-6.4h0c0,1.9-0.2,4.8-0.4,7.5l-0.5,7.6h-1.2l1.2-16.5h1.3l3.6,9.5c0.8,2.1,1.3,3.8,1.8,5.3h0.1 c0.4-1.5,1-3.1,1.8-5.3l3.7-9.5h1.4l1.1,16.5h-1.2L499.9,108.2z"></path> <path class="st0" d="M506.2,99.5V116H505V99.5H506.2z"></path> <path class="st0" d="M518,107.8h-6.6v7.2h7.4v1h-8.6V99.5h8.2v1h-7v6.3h6.6V107.8z"></path> <path class="st0" d="M521.6,116V99.5h1.1l6.4,9.8c1.3,2.1,2.3,3.6,3.1,5.2l0,0c-0.2-2.2-0.2-4.1-0.2-6.7v-8.2h1.1V116h-1.1 l-6.3-9.6c-1.2-1.9-2.4-3.6-3.2-5.3l0,0c0.1,2,0.1,3.8,0.1,6.6v8.4H521.6z"></path> <path class="st0" d="M540.4,100.5H535v-1h12v1h-5.4V116h-1.2V100.5z"></path> <path class="st0" d="M554.8,116.3c-4.1,0-7.2-3.2-7.2-8.4c0-5.4,3.3-8.7,7.4-8.7c4.2,0,7.2,3.3,7.2,8.4 C562.2,113.4,558.6,116.3,554.8,116.3L554.8,116.3z M554.9,115.3c3.9,0,6.1-3.6,6.1-7.6c0-3.5-1.9-7.4-6.1-7.4 c-4.2,0-6.1,3.8-6.1,7.7C548.8,111.6,550.9,115.3,554.9,115.3L554.9,115.3z"></path> </g> <g> <path class="st0" d="M383.5,127.4c1-0.2,2.2-0.3,3.6-0.3c2,0,3.5,0.5,4.4,1.4c0.8,0.8,1.3,1.9,1.3,3.2c0,1.4-0.4,2.5-1.2,3.3 c-1.1,1.2-2.8,1.8-4.9,1.8c-0.8,0-1.4,0-2-0.2v7.1h-1.2V127.4z M384.7,135.7c0.6,0.2,1.3,0.2,2.1,0.2c3,0,4.7-1.4,4.7-4 c0-2.6-1.9-3.8-4.5-3.8c-1.1,0-1.9,0.1-2.3,0.2V135.7z"></path> <path class="st0" d="M397,127.3v10c0,4.2,2,5.8,4.4,5.8c2.7,0,4.6-1.8,4.6-5.8v-10h1.2v9.9c0,5.1-2.7,6.9-5.9,6.9 c-2.9,0-5.5-1.7-5.5-6.7v-10H397z M404.9,123.6l-3.2,2.8h-1l2.4-2.8H404.9z"></path> <path class="st0" d="M411.1,127.5c0.9-0.2,2.1-0.4,3.3-0.4c2.1,0,3.4,0.4,4.3,1.4c0.7,0.7,1,1.5,1,2.7c0,1.7-1.2,3.1-2.8,3.7v0.1 c1.4,0.3,3.5,1.5,3.5,4.2c0,1.3-0.5,2.4-1.2,3.2c-1.1,1.1-2.9,1.6-5.2,1.6c-1.2,0-2.2-0.1-2.9-0.1V127.5z M412.3,134.5h2.4 c2.4,0,3.9-1.4,3.9-3.2c0-2.3-1.8-3.2-4.2-3.2c-1.1,0-1.7,0.1-2.1,0.2V134.5z M412.3,142.8c0.5,0.1,1.2,0.1,2,0.1 c2.5,0,4.9-0.9,4.9-3.7c0-2.6-2.2-3.7-4.9-3.7h-2.1V142.8z"></path> <path class="st0" d="M423.5,127.3h1.2v15.5h7.4v1h-8.5V127.3z"></path> <path class="st0" d="M435.7,127.3v16.5h-1.2v-16.5H435.7z"></path> <path class="st0" d="M450.9,143.2c-0.8,0.4-2.4,0.8-4.5,0.8c-4,0-7.8-2.5-7.8-8.4c0-4.9,3.2-8.6,8.4-8.6c2.1,0,3.3,0.5,3.8,0.7 l-0.4,1c-0.8-0.4-2-0.7-3.4-0.7c-4.5,0-7.2,2.9-7.2,7.6c0,4.5,2.5,7.4,7,7.4c1.4,0,2.8-0.3,3.7-0.8L450.9,143.2z"></path> <path class="st0" d="M459.8,144c-4.1,0-7.2-3.2-7.2-8.4c0-5.4,3.3-8.7,7.4-8.7c4.2,0,7.2,3.3,7.2,8.4 C467.2,141.2,463.6,144,459.8,144L459.8,144z M459.9,143.1c3.9,0,6.1-3.6,6.1-7.6c0-3.5-1.9-7.4-6.1-7.4c-4.2,0-6.1,3.8-6.1,7.7 C453.8,139.4,455.9,143.1,459.9,143.1L459.9,143.1z"></path> </g> <g> <path class="st0" d="M385.5,165.8l-2,5.8h-1.2l6-16.5h1.1l6,16.5h-1.2l-2.1-5.8H385.5z M391.6,164.8l-2-5.5 c-0.4-1.2-0.6-2-0.9-2.9h0c-0.2,1-0.5,1.8-0.9,2.9l-2,5.6H391.6z"></path> <path class="st0" d="M411.8,163.7c-0.1-2.5-0.3-5.5-0.3-7.3h0c-0.6,1.8-1.3,3.7-2.2,6.2l-3.5,9h-0.8l-3.3-8.8 c-0.9-2.6-1.6-4.6-2.1-6.4h0c0,1.9-0.2,4.8-0.4,7.5l-0.5,7.6h-1.2l1.2-16.5h1.3l3.6,9.5c0.8,2.1,1.3,3.8,1.8,5.3h0.1 c0.4-1.5,1-3.1,1.8-5.3l3.7-9.5h1.4l1.1,16.5h-1.2L411.8,163.7z"></path> <path class="st0" d="M416.9,155.3c0.9-0.2,2.1-0.4,3.3-0.4c2.1,0,3.4,0.4,4.3,1.4c0.7,0.7,1,1.5,1,2.7c0,1.7-1.2,3.1-2.8,3.7v0.1 c1.4,0.3,3.5,1.5,3.5,4.2c0,1.3-0.5,2.4-1.2,3.2c-1.1,1.1-2.9,1.6-5.2,1.6c-1.2,0-2.2-0.1-2.9-0.1V155.3z M418.1,162.3h2.4 c2.4,0,3.9-1.4,3.9-3.2c0-2.3-1.8-3.2-4.2-3.2c-1.1,0-1.7,0.1-2.1,0.2V162.3z M418.1,170.6c0.5,0.1,1.2,0.1,2,0.1 c2.5,0,4.9-0.9,4.9-3.7c0-2.6-2.2-3.7-4.9-3.7h-2.1V170.6z"></path> <path class="st0" d="M430.4,155v16.5h-1.2V155H430.4z"></path> <path class="st0" d="M442.2,163.3h-6.6v7.2h7.4v1h-8.6V155h8.2v1h-7v6.3h6.6V163.3z"></path> <path class="st0" d="M445.9,171.5V155h1.1l6.4,9.8c1.3,2.1,2.3,3.6,3.1,5.2l0,0c-0.2-2.2-0.2-4.1-0.2-6.7V155h1.1v16.5h-1.1 l-6.3-9.6c-1.2-1.9-2.4-3.6-3.2-5.3l0,0c0.1,2,0.1,3.8,0.1,6.6v8.4H445.9z"></path> <path class="st0" d="M464.6,156h-5.4v-1h12v1h-5.4v15.5h-1.2V156z"></path> <path class="st0" d="M474.9,165.8l-2,5.8h-1.2l6-16.5h1.1l6,16.5h-1.2l-2.1-5.8H474.9z M481.1,164.8l-2-5.5 c-0.4-1.2-0.6-2-0.9-2.9h0c-0.2,1-0.5,1.8-0.9,2.9l-2,5.6H481.1z"></path> <path class="st0" d="M487.2,155h1.2v15.5h7.4v1h-8.5V155z"></path> </g> <g> <g> <path class="st1" d="M27.8,212.7c-1.4,0.7-4,1.4-7.4,1.4c-6.6,0-13-4.2-13-14c0-8.1,5.2-14.3,13.9-14.3c3.5,0,5.5,0.8,6.3,1.2 l-0.6,1.6c-1.4-0.7-3.4-1.2-5.7-1.2c-7.4,0-11.9,4.8-11.9,12.7c0,7.4,4.2,12.2,11.6,12.2c2.3,0,4.6-0.5,6.2-1.3L27.8,212.7z"></path> </g> <g> <path class="st1" d="M55.7,204.1l-3.4,9.6h-2l9.9-27.4h1.9l9.9,27.4h-2l-3.5-9.6H55.7z M66,202.4l-3.3-9.2 c-0.7-1.9-1-3.3-1.4-4.8h-0.1c-0.4,1.6-0.9,3-1.4,4.8l-3.4,9.2H66z"></path> </g> <g> <path class="st1" d="M96.3,186.6c1.7-0.4,4-0.6,5.9-0.6c3.6,0,5.9,0.8,7.4,2.3c1.2,1.1,1.9,3,1.9,4.9c0,3.7-2.2,6.1-5.4,7.2v0.1 c2.2,0.7,3.6,2.8,4.2,5.8c0.9,4.3,1.5,6.3,2,7.4h-2c-0.4-0.8-1-3.2-1.7-6.7c-0.9-3.9-2.6-5.7-6.2-5.9h-4.3v12.6h-2V186.6z M98.2,199.5h4.4c4.2,0,7-2.4,7-6c0-4.2-3.1-5.9-7.4-5.9c-1.9,0-3.3,0.2-3.9,0.4V199.5z"></path> </g> <g> <path class="st1" d="M142.7,187.9h-9v-1.6h19.9v1.6h-9v25.8h-2V187.9z"></path> </g> <g> <path class="st1" d="M176.6,204.1l-3.4,9.6h-2l9.9-27.4h1.9l9.9,27.4h-2l-3.5-9.6H176.6z M186.8,202.4l-3.3-9.2 c-0.7-1.9-1-3.3-1.4-4.8H182c-0.4,1.6-0.9,3-1.4,4.8l-3.4,9.2H186.8z"></path> </g> <g> <path class="st1" d="M236.5,212.5c-1.4,0.6-4.3,1.5-8,1.5c-3.6,0-6.9-0.9-9.7-3.6c-2.3-2.2-3.8-5.9-3.8-10.3 c0-7.6,5-14.1,14.3-14.1c2.9,0,5.3,0.7,6.4,1.2l-0.7,1.6c-1.4-0.7-3.2-1.2-5.9-1.2c-7.5,0-12.2,4.9-12.2,12.4 c0,7.7,4.5,12.4,11.8,12.4c2.9,0,4.7-0.4,5.7-1v-9.7h-6.3v-1.6h8.3V212.5z"></path> </g> <g> <path class="st1" d="M275.1,200h-10.9v12h12.2v1.6h-14.2v-27.4h13.6v1.6h-11.6v10.5h10.9V200z"></path> </g> <g> <path class="st1" d="M301.2,213.7v-27.4h1.8l10.7,16.2c2.2,3.4,3.8,6,5.2,8.6l0.1,0c-0.3-3.7-0.3-6.8-0.3-11.1v-13.7h1.9v27.4 h-1.8l-10.5-16c-2-3.1-3.9-6-5.3-8.9l-0.1,0c0.2,3.4,0.2,6.3,0.2,10.9v13.9H301.2z"></path> </g> <g> <path class="st1" d="M350.4,204.1l-3.4,9.6h-2l9.9-27.4h1.9l9.9,27.4h-2l-3.5-9.6H350.4z M360.7,202.4l-3.3-9.2 c-0.7-1.9-1-3.3-1.4-4.8h-0.1c-0.4,1.6-0.9,3-1.4,4.8l-3.4,9.2H360.7z"></path> </g> </g> </g> <g> <path class="st2" d="M363.3,132.9L310.8,18.6c-5.3-11.5-13.2-17.3-23.9-17.3c-10.7,0-18.7,5.8-24,17.3l-52.2,114.2 c-2.1,4.7-3.2,9.4-3.2,14.2c0,15.3,13.2,25.3,27.5,25.3c9.8,0,16.9-5.7,21.2-17.2l4.8-12.9h51.7l4.8,12.9 c4.3,11.5,11.5,17.2,21.5,17.2c14.5,0,27.4-9.8,27.4-25.2C366.6,142.4,365.5,137.6,363.3,132.9z M272.7,11.2 C272.7,11.2,272.7,11.2,272.7,11.2c0.1,0,0.1,0,0.1,0c1,0.3,1.9,0.6,2.8,1.1c0.4,0.2,0.7,0.4,1.1,0.6c0.4,0.3,0.8,0.5,1.2,0.8 c0.6,0.4,1.2,0.8,1.8,1.2c0.6,0.4,1,0.8,1.5,1.2c0.4,0.3,0.7,0.7,1.1,1c0.3,0.3,0.6,0.6,0.9,0.9c0.2,0.2,0.3,0.5,0.2,0.7 c0,0.3,0,0.5,0,0.8c0.1,0.9,0.1,1.8,0.2,2.8c0,0.4,0.1,0.8,0.4,1.1c0.5,0.5,1,0.9,1.7,1.2c0.2,0.1,0.4,0.2,0.6,0.3c0,0,0,0,0,0 c0.3-0.1,0.6-0.1,0.9,0c0,0,0,0,0,0c0.4-0.2,0.8-0.4,1.2-0.3c0.2,0.1,0.4,0,0.6-0.1c0.5-0.2,1-0.5,1.6-0.5 c-0.4,0.3-0.7,0.6-1.1,0.8c-0.5,0.3-0.9,0.8-1.1,1.3c-0.2,0.4-0.4,0.9-0.3,1.3c0.1,0.3,0.2,0.6,0.2,1c0.2,0.7,0.5,1.2,1.2,1.5 c1,0.4,1.9,0.7,2.9,1c0.3,0.1,0.5,0.1,0.7,0.2c0.6,0.3,0.9,0.8,1.1,1.4c0.2,0.4,0.4,0.9,0.6,1.3c0.2,0.4,0.5,0.8,0.6,1.3 c0.2,0.3,0.2,0.7,0.3,1c0.1,0.4,0.3,0.8,0.4,1.2c0.3,0.8,0.5,1.5,0.7,2.2c0.1,0.3,0.2,0.7,0.3,1c0.1,0.3,0.1,0.5,0.2,0.8 c0.2,0.8,0.3,1.6,0.3,2.3c0,0.2-0.1,0.3-0.1,0.5c-0.1,0.1-0.2,0.2-0.2,0c-0.1-0.1-0.1-0.2-0.2-0.3c-0.1-0.1-0.1-0.2-0.2-0.2 c-0.1-0.1-0.3-0.2-0.3-0.3c-0.2-0.3-0.3-0.6-0.4-0.9c-0.3-0.5-0.6-1-0.9-1.6c-0.1-0.1-0.2-0.1-0.2-0.2c-0.1-0.1-0.2-0.1-0.3-0.1 c-0.2-0.2-0.3-0.3-0.4-0.5c-0.1-0.1-0.2-0.2-0.3-0.4c-0.2-0.2-0.3-0.4-0.5-0.7c-0.1-0.1-0.1-0.2-0.2-0.3c-0.1-0.1-0.2-0.3-0.4-0.4 c-0.1-0.2-0.2-0.3-0.3-0.5c-0.3-0.4-0.5-0.7-0.8-1c-0.3-0.4-0.5-0.8-0.8-1.3c0,0-0.1-0.1-0.1-0.1c-0.3-0.2-0.5-0.5-0.8-0.6 c-0.5-0.2-1-0.5-1.4-0.8c-0.3-0.2-0.6-0.3-0.9-0.5c-0.2-0.1-0.4-0.3-0.6-0.3c-0.2-0.1-0.4-0.2-0.5-0.4c0-0.1-0.1-0.1-0.2-0.2 c-0.3-0.2-0.7-0.4-0.9-0.8c-0.2-0.4-0.6-0.7-0.7-1.2c0-0.1-0.1-0.2-0.2-0.2c-0.2-0.1-0.3-0.1-0.5-0.2c-0.4,0-0.8-0.1-1.1-0.1 c-0.1,0-0.2,0.1-0.3,0.1c-0.1,0.1-0.2,0.2-0.3,0.4c-0.6,0.7-1.2,1.3-1.8,1.9c-0.7,0.7-1.4,1.3-2.1,2c-0.3,0.3-0.6,0.5-0.9,0.8 c-0.1,0.1-0.3,0.2-0.4,0c-0.1-0.2,0-0.3,0.1-0.4c0,0,0.1,0,0.1,0c0.4-0.4,0.9-0.9,1.3-1.3c0.6-0.6,1.2-1.3,1.6-2.1 c0.2-0.3,0.1-0.8-0.2-0.8c-0.3,0-0.6,0-0.8,0.1c-0.3,0.2-0.6,0.4-0.9,0.6c-0.4,0.3-0.9,0.6-1.3,0.9c-0.5,0.4-1.1,0.8-1.6,1.2 c-0.1,0.1-0.3,0.2-0.4,0.1c-0.1-0.2,0-0.3,0.1-0.4c0.3-0.3,0.6-0.5,0.9-0.8c0.3-0.3,0.7-0.5,0.9-0.9c0-0.1,0.1-0.1,0.2-0.2 c0.4-0.3,0.8-0.6,1.2-0.9c0.9-0.6,1.7-1.1,2.6-1.7c0.1-0.1,0.3-0.2,0.4-0.3c0.1-0.2,0.1-0.5,0.1-0.7s0.1-0.4,0.1-0.6 c0-0.2,0-0.4-0.1-0.5c-0.1-0.3-0.3-0.6-0.5-0.8c-0.2-0.2-0.4-0.4-0.5-0.6c-0.3-0.5-0.5-0.9-0.7-1.3c-0.2-0.5-0.4-1-0.5-1.5 c0-0.1-0.1-0.2-0.1-0.3c-0.1-0.3-0.3-0.6-0.3-0.9c0-0.3,0-0.5-0.1-0.8c-0.1-0.3-0.1-0.5-0.2-0.7c0-0.1-0.1-0.2,0-0.3 c0-0.3-0.2-0.6-0.4-0.8c-0.2-0.3-0.5-0.6-0.8-0.9c-0.3-0.3-0.5-0.7-0.8-1c-0.2-0.2-0.4-0.4-0.6-0.6c-0.1-0.2-0.2-0.4-0.4-0.6 c-0.3-0.4-0.6-0.8-0.9-1.2c-0.1-0.1-0.1-0.2-0.1-0.2c0-0.1-0.1-0.1,0-0.2c0.1-0.2,0-0.4-0.2-0.5c-0.7-0.6-1.1-1.3-1.8-1.8 c-0.1-0.1-0.2-0.2-0.1-0.3c0-0.2-0.1-0.3-0.2-0.4c-0.1,0-0.1-0.1-0.2-0.1c-0.1-0.1-0.1-0.1-0.1-0.2 C272.6,11.3,272.7,11.2,272.7,11.2z M311.9,86.5c-0.3,0.3-0.5,0.5-0.9,0.8c-0.1,0-0.1,0.1-0.1,0.1c0.1,0.2,0.1,0.4,0.1,0.6 c0,0.6-0.4,1-0.9,1.2c0,4.6,0,27.6,0,42.8c-4.1-1.7-7.2-5.4-9.3-11l-3.4-9.1h-33.2l0-22.7c-0.5-0.2-0.9-0.7-0.9-1.2 c0-0.2,0.1-0.4,0.1-0.6c0,0-0.1-0.1-0.1-0.1c-0.4-0.3-0.6-0.5-0.9-0.8c-3.4-3.5-7.4-7.1,0.1-8.5c4-0.7,3.9-5.1,5.7-8.7 c2.4-4.9,6.1-7.7,11.1-10.5l0-2.6c1-0.8,2.4-2.1,4.2-2.6c-0.3-3.5,1-1.9,1.9-3.5c0-3.3-1.6-1.9-1.7-4.7c-0.2-4.8,7.1-4.8,7,0 c-0.1,2.9-1.7,1.4-1.7,4.7c0.9,1.7,2.1,0,1.9,3.5c1.8,0.4,3.2,1.8,4.2,2.6v2.6c5,2.8,8.7,5.6,11.1,10.5c1.7,3.5,1.6,7.9,5.6,8.7 C319.2,79.4,315.2,83,311.9,86.5z"></path> <path class="st3" d="M87.8,132.1H52.1v-25.3h16.2c-2.9-7.2-6.6-15.3-11.4-24.3C40.2,51.4,11.7,25.2,2.5,17.3 c0.2-1.2,0.6-2.4,1-3.5c21.3,17.9,53,50,69,93h10.2c13,0,19.5-6.8,19.5-20.3c0-13.5-6.5-20.3-19.5-20.3H52.1V41.7h35.7 c13,0,19.5-6.7,19.5-20.1S100.8,1.4,87.8,1.4H27c-16.7,0-25.1,7.3-25.1,22v126.9c0,14.7,8.4,22,25.1,22h60.8 c13,0,19.5-6.7,19.5-20.1S100.8,132.1,87.8,132.1z M76.7,172.4h-3.1c2-5.5,3.6-11.4,3.9-16.7c0.3-6.5,0.2-14.1-1.6-23.6h3.8 c0.5,2.6,1,5.2,1.3,7.9C82.7,152.2,80.9,163,76.7,172.4z"></path> <path class="st4" d="M237.2,18.5c-5.1-5.9-10.8-10.3-17.2-13.1c-40.7,20.8-88.5,59.7-58.1,120.7c5.5,11,7.8,21.6,7.4,31.3 c0.5-2.1,0.8-4.5,0.8-7.1v-35h25.6c6.4,0,12.3-0.9,17.7-2.7l33.9-77.2C245,29.4,241.7,23.7,237.2,18.5z M199.7,77.5 c-4.4,4.4-9.1,8.5-13.9,12.5c-2.6,2.1-5.2,4.2-7.8,6.3c-2,1.6-4,3.5-6.3,4.7c1.3-10.7,5.4-20.9,12.8-28.9 c3.6-3.9,8.1-6.9,11.6-11.1c3.5-4.2,6.2-9,8.2-14c-2.3,5.2-5.6,10.1-9.6,14.1c-3.7,3.7-8.3,6.4-12.1,10 c-7.7,7.4-12.7,17.4-14.3,27.9c-4.4-12.4-3-26.6,5.1-37.2c4.7-6.2,13.1-9.8,19.2-14.7c5.7-4.5,15.1-14.5,15.1-14.5 c2,4.3,3,8.9,3.6,13.7c-0.2-1.1,0,1.8,0.1,3.7v0C211.3,60.3,207,70.3,199.7,77.5z"></path> <path class="st5" d="M218,4.7c-5-1.9-10.4-2.8-16.2-2.8h-56.7c-16.7,0-25.1,7.4-25.1,22.1v126.4c0,14.7,8.3,22,25.1,22 c6.1,0,11.1-1,14.9-2.9c4.5-13.3,4.3-28.9-3.4-45.9C127.5,60,181.8,22,218,4.7"></path> <linearGradient id="SVGID_1_" gradientUnits="userSpaceOnUse" x1="262.7598" y1="-2.7493" x2="262.7598" y2="140.1455"> <stop offset="1.955307e-02" style="stop-color:#50A6AF"></stop> <stop offset="1" style="stop-color:#50A6AF;stop-opacity:0.2"></stop> </linearGradient> <path class="st6" d="M310.8,18.6c-5.2-11.5-13.2-17.3-23.9-17.3c-10.7,0-18.7,5.8-24,17.3l-52.2,114.3c-2.1,4.7-3.2,9.4-3.2,14.2 c0,15.3,13.2,25.3,27.5,25.3c9.8,0,16.9-5.7,21.2-17.2l4.8-12.9h29.1c-0.8-2.5-1.8-5-3-7.6c-3.7-8-6-15.6-7.2-22.8h-16l0-22.7 c-0.5-0.2-0.9-0.7-0.9-1.2c0-0.2,0.1-0.4,0.1-0.6c0,0-0.1-0.1-0.1-0.1c-0.4-0.3-0.6-0.5-0.9-0.8c-3.4-3.5-7.4-7.1,0.1-8.5 c4-0.7,3.9-5.1,5.7-8.7c2.4-4.9,6.1-7.7,11.1-10.5l0-2.6c1-0.8,2.4-2.1,4.2-2.6c-0.3-3.5,1-1.9,1.9-3.5c0-3.3-1.6-1.9-1.7-4.7 c-0.2-4.8,7.1-4.8,7,0c-0.1,2.9-1.7,1.4-1.7,4.7c0.9,1.7,2.1,0,1.9,3.5c1.7,0.4,3.1,1.7,4.1,2.5c6.5-8.5,14.6-15.8,23.1-22.1 L310.8,18.6z M297.5,44.4c-0.1,0.1-0.2,0.2-0.2,0c-0.1-0.1-0.1-0.2-0.2-0.3c-0.1-0.1-0.1-0.2-0.2-0.2c-0.1-0.1-0.3-0.2-0.3-0.3 c-0.2-0.3-0.3-0.6-0.4-0.9c-0.3-0.5-0.6-1-0.9-1.6c-0.1-0.1-0.2-0.1-0.2-0.2c-0.1-0.1-0.2-0.1-0.3-0.1c-0.2-0.2-0.3-0.3-0.4-0.5 c-0.1-0.1-0.2-0.2-0.3-0.4c-0.2-0.2-0.3-0.4-0.5-0.7c-0.1-0.1-0.1-0.2-0.2-0.3c-0.1-0.1-0.2-0.3-0.4-0.4c-0.1-0.2-0.2-0.3-0.3-0.5 c-0.3-0.4-0.5-0.7-0.8-1c-0.3-0.4-0.5-0.8-0.8-1.3c0,0-0.1-0.1-0.1-0.1c-0.3-0.2-0.5-0.5-0.8-0.6c-0.5-0.2-1-0.5-1.4-0.8 c-0.3-0.2-0.6-0.3-0.9-0.5c-0.2-0.1-0.4-0.3-0.6-0.3c-0.2-0.1-0.4-0.2-0.5-0.4c0-0.1-0.1-0.1-0.2-0.2c-0.3-0.2-0.7-0.4-0.9-0.8 c-0.2-0.4-0.6-0.7-0.7-1.2c0-0.1-0.1-0.2-0.2-0.2c-0.2-0.1-0.3-0.1-0.5-0.2c-0.4,0-0.8-0.1-1.1-0.1c-0.1,0-0.2,0.1-0.3,0.1 c-0.1,0.1-0.2,0.2-0.3,0.4c-0.6,0.7-1.2,1.3-1.8,1.9c-0.7,0.7-1.4,1.3-2.1,2c-0.3,0.3-0.6,0.5-0.9,0.8c-0.1,0.1-0.3,0.2-0.4,0 c-0.1-0.2,0-0.3,0.1-0.4c0,0,0.1,0,0.1,0c0.4-0.4,0.9-0.9,1.3-1.3c0.6-0.6,1.2-1.3,1.6-2.1c0.2-0.3,0.1-0.8-0.2-0.8 c-0.3,0-0.6,0-0.8,0.1c-0.3,0.2-0.6,0.4-0.9,0.6c-0.4,0.3-0.9,0.6-1.3,0.9c-0.5,0.4-1.1,0.8-1.6,1.2c-0.1,0.1-0.3,0.2-0.4,0.1 c-0.1-0.2,0-0.3,0.1-0.4c0.3-0.3,0.6-0.5,0.9-0.8c0.3-0.3,0.7-0.5,0.9-0.9c0-0.1,0.1-0.1,0.2-0.2c0.4-0.3,0.8-0.6,1.2-0.9 c0.9-0.6,1.7-1.1,2.6-1.7c0.1-0.1,0.3-0.2,0.4-0.3c0.1-0.2,0.1-0.5,0.1-0.7s0.1-0.4,0.1-0.6c0-0.2,0-0.4-0.1-0.5 c-0.1-0.3-0.3-0.6-0.5-0.8c-0.2-0.2-0.4-0.4-0.5-0.6c-0.3-0.5-0.5-0.9-0.7-1.3c-0.2-0.5-0.4-1-0.5-1.5c0-0.1-0.1-0.2-0.1-0.3 c-0.1-0.3-0.3-0.6-0.3-0.9c0-0.3,0-0.5-0.1-0.8c-0.1-0.3-0.1-0.5-0.2-0.7c0-0.1-0.1-0.2,0-0.3c0-0.3-0.2-0.6-0.4-0.8 c-0.2-0.3-0.5-0.6-0.8-0.9c-0.3-0.3-0.5-0.7-0.8-1c-0.2-0.2-0.4-0.4-0.6-0.6c-0.1-0.2-0.2-0.4-0.4-0.6c-0.3-0.4-0.6-0.8-0.9-1.2 c-0.1-0.1-0.1-0.2-0.1-0.2c0-0.1-0.1-0.1,0-0.2c0.1-0.2,0-0.4-0.2-0.5c-0.7-0.6-1.1-1.3-1.8-1.8c-0.1-0.1-0.2-0.2-0.1-0.3 c0-0.2-0.1-0.3-0.2-0.4c-0.1,0-0.1-0.1-0.2-0.1c-0.1-0.1-0.1-0.1-0.1-0.2c0.1-0.1,0.2-0.1,0.2-0.1c0,0,0,0,0,0c0,0,0.1,0,0.1,0 c1,0.3,1.9,0.6,2.8,1.1c0.4,0.2,0.7,0.4,1.1,0.6c0.4,0.3,0.8,0.5,1.2,0.8c0.6,0.4,1.2,0.8,1.8,1.2c0.6,0.4,1,0.8,1.5,1.2 c0.4,0.3,0.7,0.7,1.1,1c0.3,0.3,0.6,0.6,0.9,0.9c0.2,0.2,0.3,0.5,0.2,0.7c0,0.3,0,0.5,0,0.8c0.1,0.9,0.1,1.8,0.2,2.8 c0,0.4,0.1,0.8,0.4,1.1c0.5,0.5,1,0.9,1.7,1.2c0.2,0.1,0.4,0.2,0.6,0.3c0,0,0,0,0,0c0.3-0.1,0.6-0.1,0.9,0c0,0,0,0,0,0 c0.4-0.2,0.8-0.4,1.2-0.3c0.2,0.1,0.4,0,0.6-0.1c0.5-0.2,1-0.5,1.6-0.5c-0.4,0.3-0.7,0.6-1.1,0.8c-0.5,0.3-0.9,0.8-1.1,1.3 c-0.2,0.4-0.4,0.9-0.3,1.3c0.1,0.3,0.2,0.6,0.2,1c0.2,0.7,0.5,1.2,1.2,1.5c1,0.4,1.9,0.7,2.9,1c0.3,0.1,0.5,0.1,0.7,0.2 c0.6,0.3,0.9,0.8,1.1,1.4c0.2,0.4,0.4,0.9,0.6,1.3c0.2,0.4,0.5,0.8,0.6,1.3c0.2,0.3,0.2,0.7,0.3,1c0.1,0.4,0.3,0.8,0.4,1.2 c0.3,0.8,0.5,1.5,0.7,2.2c0.1,0.3,0.2,0.7,0.3,1c0.1,0.3,0.1,0.5,0.2,0.8c0.2,0.8,0.3,1.6,0.3,2.3C297.6,44,297.6,44.2,297.5,44.4 z"></path> <path class="st7" d="M211.5,50L211.5,50c-0.2-1.8-0.3-4.8-0.1-3.7c0,0.2,0.1,0.4,0.1,0.8C211.8,52.4,211.7,51.8,211.5,50z"></path> <path class="st8" d="M77.5,155.7c-0.2,5.3-1.9,11.2-3.9,16.7H27c-16.7,0-25.1-7.3-25.1-22v-127c0-2.2,0.2-4.2,0.6-6.1 c9.1,7.9,37.7,34.1,54.3,65.2c4.8,9,8.5,17.1,11.4,24.3H52.1v25.3h23.8C77.7,141.6,77.8,149.2,77.5,155.7z"></path> </g> </g> </svg>